<?xml version="1.0" standalone="no"?>
<!DOCTYPE svg PUBLIC "-//W3C//DTD SVG 20010904//EN"
 "http://www.w3.org/TR/2001/REC-SVG-20010904/DTD/svg10.dtd">
<svg version="1.0" xmlns="http://www.w3.org/2000/svg"
 width="2048.000000pt" height="2048.000000pt" viewBox="0 0 2048.000000 2048.000000"
 preserveAspectRatio="xMidYMid meet">
<metadata>
Created by potrace 1.14, written by Peter Selinger 2001-2017
</metadata>
<g transform="translate(0.000000,2048.000000) scale(0.100000,-0.100000)"
fill="#000000" stroke="none">
<path d="M5795 18684 c-556 -5 -1628 -36 -1895 -55 -296 -21 -534 -51 -600
-77 -33 -13 -112 -98 -142 -153 -21 -39 -23 -57 -23 -169 0 -120 1 -127 29
-178 34 -61 74 -93 125 -102 34 -5 36 -7 33 -40 -5 -49 -18 -77 -58 -125 -72
-88 -53 -184 51 -263 l30 -23 -67 7 c-58 5 -72 3 -102 -15 -61 -38 -173 -168
-211 -244 -58 -117 -60 -171 -55 -1192 6 -1121 6 -780 -3 -5705 -4 -2296 -10
-4204 -13 -4240 -3 -36 -17 -128 -30 -204 -53 -297 -22 -465 121 -652 74 -96
245 -226 316 -241 l28 -5 -33 -42 c-61 -76 -125 -177 -136 -214 -21 -76 -8
-153 36 -218 15 -21 19 -32 10 -25 -28 23 -55 -10 -97 -119 -8 -19 -14 -39
-14 -45 0 -5 -16 -44 -37 -85 -56 -116 -78 -168 -78 -184 0 -8 -4 -17 -9 -20
-4 -3 -14 -27 -21 -53 -20 -79 -34 -113 -43 -113 -5 0 -6 -11 -3 -24 3 -14 2
-27 -3 -30 -5 -3 -12 -27 -17 -53 -8 -52 -8 -51 -17 -73 -3 -8 -5 -22 -5 -30
0 -8 -7 -42 -16 -76 -26 -101 -23 -249 9 -399 13 -62 50 -163 65 -179 5 -5 6
-15 3 -22 -3 -8 2 -17 11 -20 9 -3 16 -11 16 -16 0 -9 31 -52 107 -147 42 -52
115 -116 188 -165 212 -141 355 -226 407 -241 13 -4 37 -13 53 -20 17 -7 62
-25 100 -39 39 -15 78 -31 88 -37 15 -8 122 -45 162 -55 6 -2 57 -17 115 -34
58 -18 143 -40 190 -51 47 -10 114 -26 150 -34 90 -21 407 -84 510 -101 47 -7
141 -22 210 -33 120 -20 316 -56 465 -86 39 -8 131 -24 205 -35 74 -11 158
-25 185 -31 88 -17 246 -39 390 -54 77 -8 154 -17 172 -19 18 -3 108 -10 200
-16 92 -6 182 -12 198 -15 17 -2 55 -7 85 -10 30 -2 100 -10 155 -17 55 -6
120 -13 145 -14 25 -1 70 -5 100 -7 30 -3 132 -9 225 -13 94 -4 188 -8 210 -9
22 -2 283 -6 580 -10 395 -6 578 -5 680 4 77 7 190 14 250 17 61 2 155 8 210
14 55 5 166 12 246 15 81 2 153 7 160 9 8 3 86 7 174 11 88 3 189 10 225 15
91 13 267 29 385 35 55 3 106 7 115 9 8 3 56 8 105 11 50 3 104 8 120 10 17 3
84 9 150 15 196 18 208 19 235 25 14 2 50 7 80 10 30 3 62 8 70 10 8 2 58 7
110 10 52 3 115 10 140 15 25 5 89 14 144 20 54 6 131 17 170 24 39 8 94 17
121 20 133 15 218 27 238 35 12 5 25 9 30 9 4 0 36 4 72 7 36 4 66 6 67 4 2
-1 12 3 24 9 20 11 42 16 109 29 59 10 464 117 544 142 35 12 69 21 75 21 18
0 244 75 331 110 81 32 93 38 198 84 32 14 60 26 63 26 5 0 90 42 254 127 41
21 90 48 108 61 17 13 32 21 32 17 0 -3 6 -1 13 5 23 19 88 60 96 60 4 0 19 9
32 20 36 29 41 33 74 54 41 27 43 28 163 147 104 102 184 189 174 189 -3 0 3
9 13 20 10 11 22 17 26 14 5 -3 6 1 3 9 -6 17 137 168 197 208 22 14 36 29 32
34 -5 4 -3 5 3 2 6 -4 24 5 38 18 15 14 33 22 39 19 7 -4 9 -4 5 1 -5 5 2 14
15 21 44 25 130 64 139 64 12 0 161 72 168 82 3 3 19 10 35 14 38 9 96 40 89
47 -3 3 10 8 28 12 18 4 42 14 53 21 11 8 27 14 36 14 9 0 24 9 33 19 10 11
31 23 48 26 16 4 32 13 35 20 2 8 10 12 17 9 12 -4 76 40 84 57 2 4 11 5 22 2
13 -4 19 1 22 18 2 12 12 27 23 33 11 6 22 14 25 17 3 4 15 9 28 13 12 4 29
21 38 37 8 16 19 27 24 24 14 -8 12 19 -1 32 -8 8 -5 17 12 34 17 17 22 33 21
63 -1 32 1 36 8 21 5 -11 9 -14 9 -7 1 7 5 11 10 8 14 -9 20 45 15 143 -5 86
-3 95 16 108 24 17 25 26 3 48 -14 14 -14 18 -2 26 8 5 10 9 4 10 -5 1 -14 3
-20 4 -5 2 -14 3 -19 4 -5 0 -3 8 4 16 12 15 7 46 -7 44 -22 -4 -44 2 -38 10
7 12 -24 43 -35 36 -5 -3 -17 6 -26 20 -12 18 -22 23 -39 19 -19 -5 -23 -1
-28 24 -5 26 -10 29 -29 25 -13 -3 -20 -3 -16 2 4 4 0 14 -8 23 -9 8 -14 25
-12 37 6 27 -17 49 -43 42 -15 -4 -19 -2 -15 9 3 8 -1 14 -9 14 -9 0 -12 6 -9
15 4 8 1 15 -5 15 -6 0 -11 9 -11 20 0 22 -28 25 -42 5 -5 -6 -8 -5 -9 3 -1 6
-2 17 -3 24 0 7 -10 15 -21 18 -11 3 -20 12 -20 20 0 10 -8 14 -28 12 -18 -2
-29 3 -33 13 -4 9 -13 14 -20 11 -16 -6 -19 10 -4 19 6 4 8 11 4 16 -3 5 -10
7 -15 4 -5 -4 -9 3 -9 14 0 11 -5 23 -12 27 -7 4 -8 3 -4 -4 5 -8 0 -12 -13
-12 -12 0 -21 4 -21 9 0 6 -12 6 -30 1 -24 -7 -30 -6 -30 6 0 8 -4 13 -9 9 -5
-3 -12 -1 -16 5 -4 7 -12 7 -25 0 -32 -17 -50 -12 -50 14 0 13 -7 27 -16 30
-8 3 -13 10 -10 15 3 5 -1 14 -8 20 -11 10 -16 8 -21 -9 -4 -13 -12 -19 -20
-16 -8 3 -16 -3 -18 -12 -4 -16 -5 -15 -6 1 -1 11 -9 17 -26 17 -16 0 -25 6
-25 15 0 9 -10 15 -27 16 -16 1 -41 3 -58 5 -44 4 -96 -5 -90 -17 5 -7 -92
-15 -127 -10 -4 0 -27 -3 -52 -8 -29 -5 -48 -5 -55 2 -8 8 -11 7 -11 -1 0 -18
-27 -15 -34 4 -3 8 -11 12 -17 8 -8 -4 -9 -3 -5 4 4 8 0 12 -11 12 -15 0 -16
2 -3 10 13 8 12 10 -2 10 -22 0 -23 7 -1 28 16 16 16 17 0 20 -19 4 -23 28 -5
34 6 2 12 13 14 24 5 37 16 64 28 64 6 0 11 12 10 28 -1 15 4 33 9 41 15 18
17 40 6 47 -5 3 -8 2 -7 -3 4 -12 -24 -83 -33 -83 -7 0 -23 -56 -22 -77 0 -7
-3 -11 -7 -10 -5 1 -33 -22 -63 -50 -30 -29 -58 -53 -63 -53 -5 0 -23 -12 -40
-27 -17 -16 -52 -39 -77 -53 -31 -16 -43 -28 -37 -35 6 -7 -1 -17 -21 -29
l-30 -18 22 -36 c58 -95 63 -113 65 -217 l2 -100 -7 100 c-8 121 -32 176 -98
234 l-45 40 75 37 c84 41 200 125 254 185 19 21 40 36 46 32 6 -3 7 -1 3 6 -4
6 4 31 17 54 83 142 92 388 22 604 l-33 102 187 62 c240 80 312 111 479 205
380 213 747 500 1093 851 214 216 240 247 488 573 75 99 301 426 301 436 0 2
12 23 27 47 77 122 273 498 358 688 26 57 62 136 81 175 18 40 48 109 65 155
18 46 47 125 66 174 229 601 374 1293 423 2013 13 196 13 836 0 1057 -58 965
-283 1825 -677 2584 -247 477 -550 902 -810 1137 -261 237 -499 384 -732 453
-194 58 -240 62 -721 71 -372 7 -613 20 -627 34 -1 1 4 36 11 77 34 179 28
335 -15 422 -33 66 -112 133 -208 178 -47 22 -107 50 -132 62 l-47 22 25 55
c33 70 41 161 20 213 -18 43 -63 67 -122 67 -46 0 -41 9 51 89 113 98 152 206
133 365 -19 153 -80 211 -261 250 -175 38 -595 67 -1233 87 -294 9 -6693 20
-7540 13z m7025 -82 c684 -14 1401 -48 1480 -70 72 -20 -824 -16 -1785 8 -231
6 -1171 15 -2090 20 -1885 11 -3397 1 -4750 -31 -1058 -25 -1859 -33 -1827
-20 12 6 22 19 22 31 0 17 6 20 42 20 23 0 137 4 253 10 585 27 967 33 2310
39 2169 9 5746 5 6345 -7z m-9165 -332 c461 -36 948 -70 1240 -85 160 -8 394
-22 520 -30 335 -21 593 -34 910 -45 154 -6 501 -19 770 -30 1116 -45 2270
-61 3000 -41 231 6 697 18 1035 26 688 16 807 20 1235 41 380 18 1058 62 1556
99 260 20 359 10 318 -30 -21 -20 -348 -56 -829 -90 -118 -8 -287 -22 -375
-30 -146 -13 -302 -23 -1115 -70 -151 -9 -383 -25 -515 -36 -228 -18 -485 -35
-895 -59 -284 -17 -1081 -23 -1409 -12 -250 9 -296 8 -308 -4 -8 -8 -23 -14
-33 -14 -10 0 -22 -4 -25 -10 -3 -5 -15 -10 -26 -10 -10 0 -19 -4 -19 -9 0
-10 -1567 -27 -2270 -23 -481 2 -789 8 -1548 31 -150 5 -275 11 -278 14 -12
12 70 37 213 66 81 17 149 28 152 26 2 -3 -3 -5 -13 -5 -9 0 -14 -4 -11 -10 4
-6 17 -4 36 5 16 9 55 20 87 24 l57 9 -58 1 c-33 0 -56 5 -52 10 8 14 -40 48
-103 71 -61 23 -191 42 -407 60 -229 19 -598 59 -790 86 -211 29 -331 56 -383
84 l-37 21 60 -5 c33 -3 173 -15 310 -26z m8075 -42 c-528 -27 -877 -30 -2772
-26 -1248 2 -1971 7 -1977 13 -7 7 67 11 207 13 119 2 218 4 219 5 1 1 1002 2
2225 2 1222 0 2167 -3 2098 -7z m-6943 -624 c-3 -3 -12 -4 -19 -1 -8 3 -5 6 6
6 11 1 17 -2 13 -5z m7588 -16 c-71 -4 -238 -17 -370 -28 -236 -19 -521 -34
-1245 -65 -862 -36 -1164 -45 -1561 -45 -231 0 -818 -7 -1302 -16 -485 -9
-970 -13 -1077 -10 -107 3 -366 7 -575 8 -507 2 -534 4 -545 31 -5 12 -9 18
-9 14 -1 -5 -9 -1 -18 9 -13 12 -14 19 -6 21 18 6 -29 50 -58 56 -45 8 165 7
396 -3 531 -23 3910 -10 5270 20 430 10 628 13 1115 16 l115 1 -130 -9z
m-7182 -5 c-13 -2 -33 -2 -45 0 -13 2 -3 4 22 4 25 0 35 -2 23 -4z m320 -10
c-29 -2 -78 -2 -110 0 -32 2 -8 3 52 3 61 0 87 -1 58 -3z m8587 -163 c0 -11
-3 -20 -7 -20 -5 0 -35 -5 -68 -10 -229 -38 -1065 -112 -1470 -130 -132 -6
-339 -15 -460 -20 -286 -13 -356 -13 -332 1 13 8 17 18 13 35 -4 16 -2 24 6
25 7 1 0 4 -17 8 -16 4 65 10 180 14 546 19 1406 66 1760 97 116 10 252 18
303 19 86 1 92 0 92 -19z m-9495 -40 c310 -21 824 -32 1695 -35 1053 -4 1220
-12 1307 -64 20 -13 45 -47 74 -104 24 -47 41 -88 38 -91 -3 -3 -93 -22 -200
-41 -107 -20 -266 -49 -354 -66 -209 -41 -275 -47 -275 -27 0 23 -123 129
-134 117 -3 -2 38 -48 90 -102 52 -54 101 -115 109 -134 12 -28 15 -81 14
-242 0 -113 -4 -215 -9 -226 -6 -15 -9 -16 -9 -4 -1 25 -31 18 -38 -9 -5 -20
1 -30 28 -53 l34 -28 0 -5153 c0 -4777 -1 -5160 -17 -5248 -80 -455 -98 -616
-97 -855 2 -224 -27 -311 -135 -413 -161 -153 -552 -223 -982 -177 -347 36
-595 96 -853 206 -211 90 -362 201 -532 393 -108 121 -151 202 -181 341 l-22
100 -4 5645 c-2 3917 0 5681 8 5764 12 136 30 186 83 233 37 33 73 46 162 58
l50 7 -40 19 c-22 10 -80 31 -130 46 -72 22 -85 28 -65 33 19 5 24 12 22 28
-2 15 2 22 12 22 9 0 16 3 17 8 0 4 2 15 4 24 4 24 -4 28 -78 38 -77 11 198 4
408 -10z m12455 -1690 c198 -118 270 -170 310 -219 31 -40 71 -128 84 -186 l7
-30 -32 38 c-58 70 -242 229 -414 358 -93 70 -192 148 -220 173 l-50 46 80
-44 c45 -24 150 -85 235 -136z m-930 65 c209 -30 371 -92 556 -214 169 -112
276 -219 445 -444 373 -497 645 -1251 740 -2052 72 -612 -1 -1470 -191 -2225
-73 -288 -124 -454 -248 -800 -104 -291 -296 -704 -432 -930 -85 -142 -257
-403 -325 -496 -117 -157 -358 -434 -491 -564 -208 -202 -409 -346 -592 -425
-136 -59 -367 -117 -407 -101 -44 17 -42 -153 -46 4031 l-4 3960 27 52 c48 89
158 152 323 183 211 40 467 49 645 25z m-633 -10601 c-3 -3 -12 -4 -19 -1 -8
3 -5 6 6 6 11 1 17 -2 13 -5z m-657 -98 c0 -2 -8 -10 -17 -17 -16 -13 -17 -12
-4 4 13 16 21 21 21 13z m-70 -591 c-7 -8 -27 -24 -45 -35 -44 -27 -51 -64
-16 -90 l26 -20 -37 15 c-21 8 -54 15 -75 16 -34 0 -36 2 -19 12 11 7 54 35
95 64 84 57 89 59 71 38z m-11200 -833 c14 -5 50 -9 81 -10 60 -1 278 -67 380
-115 68 -32 157 -59 169 -52 5 3 11 1 14 -4 7 -11 88 -11 103 1 7 6 24 4 45
-5 143 -64 493 -155 546 -143 21 5 24 4 12 -5 -12 -8 -9 -9 12 -5 14 3 61 -1
104 -9 42 -8 169 -26 283 -40 113 -14 330 -43 481 -65 151 -21 311 -41 355
-45 44 -3 134 -12 200 -20 324 -39 815 -81 1269 -109 200 -13 222 -16 267 -40
81 -42 172 -54 484 -65 358 -13 782 -14 1195 -1 402 12 556 22 1150 71 823 67
1101 104 1720 223 277 53 562 96 622 95 24 -1 35 -3 25 -6 -10 -3 -16 -11 -13
-18 10 -28 -277 -144 -567 -229 -546 -161 -876 -215 -2047 -335 -421 -44
-1143 -76 -2258 -100 -704 -16 -1113 15 -1977 150 -636 99 -965 178 -1330 319
-82 31 -195 72 -250 90 -55 18 -131 46 -170 61 -38 16 -110 40 -160 54 -369
108 -663 249 -810 389 l-50 48 45 -36 c25 -19 57 -39 70 -44z m8494 38 c-6 -6
-64 -21 -130 -35 -153 -32 -201 -47 -124 -39 30 3 52 3 50 1 -26 -25 -837
-141 -1690 -242 -520 -61 -792 -79 -1485 -96 -777 -19 -1650 11 -2202 77 -143
16 -153 17 -136 6 23 -15 -9 -42 -57 -48 -68 -9 -61 -14 21 -16 179 -4 208 -5
284 -12 92 -9 140 -15 175 -23 14 -3 53 -6 88 -5 34 0 62 -4 62 -9 0 -5 10 -9
23 -8 12 0 42 -2 67 -6 25 -3 142 -14 260 -25 378 -36 484 -57 535 -108 50
-50 34 -53 -207 -36 -889 62 -1464 128 -1471 169 -1 6 8 14 21 20 37 16 26 23
-50 30 -170 15 -614 75 -713 96 -112 23 -176 40 -202 54 -15 8 -22 15 -15 15
7 0 10 5 7 10 -3 6 0 10 7 11 7 0 21 2 31 4 9 2 17 -2 17 -8 0 -5 3 -7 6 -4 4
4 1 13 -6 22 -11 13 -9 15 12 15 13 0 47 6 74 14 98 28 182 28 187 0 1 -5 18
-8 37 -8 19 1 179 3 355 4 321 3 327 2 402 -33 21 -9 21 -11 5 -24 -16 -14
-16 -14 1 -9 10 3 28 6 40 7 21 0 21 1 2 9 -15 6 -10 8 20 7 22 0 90 5 150 11
79 8 207 8 460 0 456 -14 1419 -14 1850 1 410 14 577 23 1060 55 204 14 440
27 525 31 334 13 1084 63 1210 80 19 3 107 12 195 21 131 12 226 25 255 33 2
0 -1 -4 -6 -9z"/>
<path d="M14120 18190 c-8 -5 -10 -10 -5 -11 6 0 -1 -5 -15 -9 -22 -7 -19 -8
16 -9 45 -1 55 4 47 25 -6 16 -22 18 -43 4z"/>
<path d="M5923 17983 c15 -2 39 -2 55 0 15 2 2 4 -28 4 -30 0 -43 -2 -27 -4z"/>
<path d="M6283 17973 c26 -2 68 -2 95 0 26 2 4 3 -48 3 -52 0 -74 -1 -47 -3z"/>
<path d="M6948 17963 c45 -2 119 -2 165 0 45 1 8 3 -83 3 -91 0 -128 -2 -82
-3z"/>
<path d="M4881 17921 c-7 -5 -12 -13 -10 -18 2 -6 13 -2 23 8 20 19 12 26 -13
10z"/>
<path d="M5570 17281 c0 -17 -6 -21 -32 -21 -17 0 -29 -2 -26 -5 3 -4 59 -8
124 -10 101 -3 111 -2 64 6 -30 6 -70 11 -88 11 -22 1 -31 6 -28 14 3 8 1 16
-4 19 -6 4 -10 -3 -10 -14z"/>
<path d="M5393 17253 c20 -2 54 -2 75 0 20 2 3 4 -38 4 -41 0 -58 -2 -37 -4z"/>
<path d="M5183 17113 c9 -2 23 -2 30 0 6 3 -1 5 -18 5 -16 0 -22 -2 -12 -5z"/>
<path d="M5293 17103 c15 -2 37 -2 50 0 12 2 0 4 -28 4 -27 0 -38 -2 -22 -4z"/>
<path d="M5478 17093 c17 -2 47 -2 65 0 17 2 3 4 -33 4 -36 0 -50 -2 -32 -4z"/>
<path d="M5678 17083 c12 -2 30 -2 40 0 9 3 -1 5 -23 4 -22 0 -30 -2 -17 -4z"/>
<path d="M5923 17073 c26 -2 68 -2 95 0 26 2 4 3 -48 3 -52 0 -74 -1 -47 -3z"/>
<path d="M6313 17063 c59 -2 154 -2 210 0 56 1 8 3 -108 3 -115 0 -161 -2
-102 -3z"/>
<path d="M15558 5183 c7 -3 16 -2 19 1 4 3 -2 6 -13 5 -11 0 -14 -3 -6 -6z"/>
<path d="M16296 4751 c-3 -5 1 -11 9 -15 8 -3 15 -1 15 4 0 13 -18 22 -24 11z"/>
<path d="M16355 4669 c-4 -6 -5 -12 -2 -15 2 -3 7 2 10 11 7 17 1 20 -8 4z"/>
</g>
</svg>
